# xmcd CD database file
#
# Track frame offsets:
#	150
#	22837
#	47142
#	70142
#	92942
#	113147
#	133935
#	160280
#	180702
#	214095
#	238775
#	263092
#	295150
#
# Disc length: 4032 seconds
#
# Revision: 0
# Processed by: cddbd v1.5.2PL0 Copyright (c) Steve Scherf et al.
# Submitted via: CDex 1.70beta2
#
DISCID=bd0fbe0d
DTITLE=Chris Duarte Group - Tailspin Headwhack
DYEAR=1997
DGENRE=Blues
TTITLE0=Cleopatra
TTITLE1=Crimino
TTITLE2=The Thrill Is Gone
TTITLE3=Drivin' South
TTITLE4=Catch The Next Line
TTITLE5=Tailspin Headwhack
TTITLE6=People Say
TTITLE7=Crazy
TTITLE8=32 Blues
TTITLE9=Walls
TTITLE10=Catch The Next Line(Alternative Mix)
TTITLE11=Crash
TTITLE12=datetrack
EXTD=YEAR: 1997
EXTT0=
EXTT1=
EXTT2=
EXTT3=
EXTT4=
EXTT5=
EXTT6=
EXTT7=
EXTT8=
EXTT9=
EXTT10=
EXTT11=
EXTT12=
PLAYORDER=
